<?xml version="1.0" encoding="UTF-8" standalone="no"?>
<!-- Created with Inkscape (http://www.inkscape.org/) -->

<svg
   xmlns:dc="http://purl.org/dc/elements/1.1/"
   xmlns:cc="http://creativecommons.org/ns#"
   xmlns:rdf="http://www.w3.org/1999/02/22-rdf-syntax-ns#"
   xmlns:svg="http://www.w3.org/2000/svg"
   xmlns="http://www.w3.org/2000/svg"
   xmlns:sodipodi="http://sodipodi.sourceforge.net/DTD/sodipodi-0.dtd"
   xmlns:inkscape="http://www.inkscape.org/namespaces/inkscape"
   width="450"
   height="113.38583"
   id="svg3050"
   version="1.1"
   inkscape:version="0.48.4 r9939"
   sodipodi:docname="nomaka 2 avec titre.svg"
   inkscape:export-filename="/home/julien/Nomaka/Logo/nomaka 2 avec titre - 200.png"
   inkscape:export-xdpi="200"
   inkscape:export-ydpi="200">
  <defs
     id="defs3052" />
  <sodipodi:namedview
     id="base"
     pagecolor="#ffffff"
     bordercolor="#666666"
     borderopacity="1.0"
     inkscape:pageopacity="0.0"
     inkscape:pageshadow="2"
     inkscape:zoom="1.979899"
     inkscape:cx="187.08535"
     inkscape:cy="87.736394"
     inkscape:document-units="px"
     inkscape:current-layer="layer1"
     showgrid="false"
     units="cm"
     inkscape:window-width="1920"
     inkscape:window-height="1041"
     inkscape:window-x="1920"
     inkscape:window-y="0"
     inkscape:window-maximized="1" />
  <metadata
     id="metadata3055">
    <rdf:RDF>
      <cc:Work
         rdf:about="">
        <dc:format>image/svg+xml</dc:format>
        <dc:type
           rdf:resource="http://purl.org/dc/dcmitype/StillImage" />
        <dc:title></dc:title>
      </cc:Work>
    </rdf:RDF>
  </metadata>
  <g
     inkscape:label="Calque 1"
     inkscape:groupmode="layer"
     id="layer1"
     transform="translate(0,-938.97505)">
    <g
       style="display:inline"
       id="g3088"
       transform="matrix(0.58871538,0,0,0.58871538,-34.807797,551.50042)"
       inkscape:export-filename="/home/julien/Nomaka/Logo/nomaka 2 avec titre - 42.png"
       inkscape:export-xdpi="42.351585"
       inkscape:export-ydpi="42.351585">
      <path
         id="rect3041"
         transform="translate(0,284.36218)"
         d="m 71.5,375.09375 c -6.847248,0 -12.375,5.52775 -12.375,12.375 l 0,166.5625 c 0,6.84725 5.527752,12.375 12.375,12.375 l 739.40625,0 c 6.84725,0 12.375,-5.52775 12.375,-12.375 l 0,-166.5625 c 0,-6.84725 -5.52775,-12.375 -12.375,-12.375 l -739.40625,0 z m 14.21875,15 710.96875,0 c 5.7747,0 10.4375,4.63155 10.4375,10.40625 l 0,140.5 c 0,5.77471 -4.6628,10.40625 -10.4375,10.40625 l -710.96875,0 C 79.944048,551.40625 75.3125,546.77471 75.3125,541 l 0,-140.5 c 0,-5.7747 4.631548,-10.40625 10.40625,-10.40625 z"
         style="fill:#a51d1e;fill-opacity:1;stroke:none"
         inkscape:connector-curvature="0" />
      <path
         inkscape:connector-curvature="0"
         id="flowRoot2986"
         d="m 100.13418,698.63259 0,112.95918 27.75789,0 0,-89.1783 27.71731,0 c 2.64198,9e-5 3.95666,1.31476 3.95671,3.95671 l 0,85.22159 27.7579,0 0,-101.06874 c -8e-5,-7.92601 -3.96441,-11.89033 -11.89044,-11.89044 l -75.29937,0 z m 111.11273,0 c -7.92612,1.1e-4 -11.89044,3.96443 -11.89044,11.89044 l 0,89.1783 c 0,7.92612 3.96432,11.89044 11.89044,11.89044 l 63.40891,0 c 7.92603,0 11.89036,-3.96432 11.89044,-11.89044 l 0,-89.1783 c -8e-5,-7.92601 -3.96441,-11.89033 -11.89044,-11.89044 l -63.40891,0 z m 87.35212,0 0.0812,112.95918 27.65643,0 0,-89.1783 23.78088,0 0,89.1783 27.81876,0 0,-89.1783 19.743,0 c 2.64194,9e-5 3.95662,1.31476 3.95672,3.95671 l 0,85.22159 27.7376,0 0,-101.06874 c -1.3e-4,-7.92601 -3.96445,-11.89033 -11.89044,-11.89044 l -118.88411,0 z m 184.28153,0 -41.61654,112.95918 31.7146,0 25.74909,-69.92228 16.96316,46.1414 -24.87659,0 0,23.78088 65.37713,0 -41.61654,-112.95918 -31.69431,0 z m 85.20129,0 0,112.95918 27.73759,0 0,-65.31626 31.71461,65.31626 33.68281,0 -37.63953,-69.35414 31.69431,-43.60504 -31.69431,0 -27.75789,40.66287 0,-40.66287 -27.73759,0 z m 140.85908,0 -41.61652,112.95918 31.69431,0 25.78966,-69.92228 16.96315,46.1414 -24.91717,0 0,23.78088 65.41771,0 -41.63683,-112.95918 -31.69431,0 z m -474.25809,16.6385 15.38047,0 0,9.21204 c 2.38779,0.5605 4.67533,1.4022 6.81772,2.47549 l 5.90464,-6.93947 11.70782,9.9831 -5.96551,7.00034 c 1.11909,1.59863 2.0934,3.31427 2.9016,5.1133 l 9.29321,-1.44065 2.35374,15.19784 -9.00914,1.40007 c -0.14147,1.87977 -0.45375,3.72652 -0.91309,5.49882 l 8.03518,4.52486 -7.5482,13.41226 -7.91343,-4.46399 c -1.46592,1.56731 -3.09045,2.9812 -4.84952,4.2205 l 3.3277,8.58303 -14.34563,5.57998 -3.36828,-8.66419 c -1.18044,0.13529 -2.37479,0.18262 -3.59148,0.18262 -0.97698,0 -1.9475,-0.034 -2.9016,-0.12175 l -3.26682,8.68449 -14.38622,-5.39737 3.16538,-8.44099 c -1.86617,-1.25259 -3.60207,-2.70712 -5.15388,-4.32196 l -8.05547,4.58574 -7.58878,-13.39197 8.03518,-4.54515 c -0.427,-1.5564 -0.73081,-3.16555 -0.91309,-4.80893 l -9.23234,-1.29861 2.17112,-15.25873 9.15118,1.31891 c 0.83103,-2.04389 1.88016,-3.9814 3.1045,-5.78289 l -6.209,-6.79744 11.36288,-10.38892 6.37132,6.95977 c 1.93588,-1.00227 3.98201,-1.81138 6.12784,-2.39432 l 0,-9.47583 z m 8.17721,23.39535 c -8.84139,0 -16.00948,7.1681 -16.00948,16.00948 0,8.84139 7.16809,15.9892 16.00948,15.9892 8.84139,0 16.00949,-7.14781 16.00949,-15.9892 0,-8.84138 -7.1681,-16.00948 -16.00949,-16.00948 z"
         style="font-size:40px;font-style:normal;font-weight:normal;line-height:125%;letter-spacing:0px;word-spacing:0px;fill:#a51d1e;fill-opacity:1;stroke:none;font-family:Sans" />
      <text
         sodipodi:linespacing="125%"
         id="text3002"
         y="670.55267"
         x="99.269379"
         style="font-size:13.02291489px;font-style:normal;font-weight:normal;line-height:125%;letter-spacing:0px;word-spacing:0px;fill:#ffffff;fill-opacity:1;stroke:none;font-family:Sans"
         xml:space="preserve"><tspan
           style="font-style:normal;font-variant:normal;font-weight:bold;font-stretch:normal;fill:#ffffff;fill-opacity:1;font-family:Roboto;-inkscape-font-specification:Roboto Bold"
           y="670.55267"
           x="99.269379"
           id="tspan3004"
           sodipodi:role="line">L'esprit Libre, les idées larges</tspan></text>
    </g>
  </g>
</svg>
